<svg version="1" xmlns="http://www.w3.org/2000/svg" width="576" height="576" viewBox="0 0 432.000000 432.000000"><path d="M234.9 43.5c-.3.2-1.6.6-2.9.8-1.4.3-12.4 3-24.5 6.2-12.1 3.1-26.9 6.9-33 8.5-6 1.6-16.3 4.2-22.8 5.9-6.5 1.7-12.5 3.3-13.5 3.4-.9.2-3.7.9-6.2 1.6-2.5.7-5.3 1.5-6.2 1.6-.9.2-5.1 1.3-9.4 2.5-4.2 1.2-8.8 2.4-10.2 2.6-7.6 1.4-13.9 6-17.5 12.9l-2.1 4-.2 136.5c-.1 75.1-.2 136.7-.3 137 0 .3-18.7.4-41.3.4-35.6-.1-41.5.1-43 1.4-2.5 2.1-2.6 16.3-.1 18.3 1.3 1.2 35.5 1.4 214 1.4 196.4.1 212.6 0 214.4-1.6 2.6-2.2 2.8-15.9.2-18-1.3-1.1-9.5-1.4-42.7-1.6-22.6-.1-41.3-.2-41.6-.2-.3-.1-.5-59.7-.5-132.4V102.3l-3-4.9c-1.9-3-4.9-6-7.9-7.8l-4.8-3-35.3-.1h-35.3v-11c.1-11.4-.5-16.2-2.7-20.5-2-3.8-6.6-8.1-10.5-9.8-3.5-1.4-10.4-2.5-11.1-1.7zm2.6 172.8V367H107.9l.3-134.4.2-134.4 8.5-2.2c4.7-1.2 9.3-2.3 10.1-2.5 1.7-.4 25.5-6.6 36.5-9.5 3.9-1 18.7-4.9 33-8.6 14.3-3.7 28.9-7.5 32.5-8.4 3.6-1 6.9-1.7 7.5-1.6.6.2 1 53.5 1 150.9zm86.2-108c.4.5.8 248.7.4 257.7-.1 1.3-4.3 1.5-31.8 1.3-17.5 0-32.1-.2-32.6-.2-.4-.1-.7-58.4-.6-129.5l.2-129.5 2.1-.3c4-.6 61.6-.1 62.3.5z"/><path d="M189.2 195.5c-3.6 1.6-8.8 8.3-10.1 13.2-1.7 5.9-.4 15.2 2.7 20.2 3.5 5.7 6.7 8 11.7 8.4 9.3.8 16.7-8.5 16.8-21.3 0-10.3-6.3-20.9-12.6-21.1-1.2 0-2.9-.2-3.8-.4-.8-.1-2.9.3-4.7 1z"/></svg>